<svg id="visual" viewBox="0 0 2000 1000" width="2000" height="1000" xmlns="http://www.w3.org/2000/svg" xmlns:xlink="http://www.w3.org/1999/xlink" version="1.1"><path d="M1879 1000L1845.7 966.7C1812.3 933.3 1745.7 866.7 1739 800C1732.3 733.3 1785.7 666.7 1775.7 600C1765.7 533.3 1692.3 466.7 1692.3 400C1692.3 333.3 1765.7 266.7 1762.3 200C1759 133.3 1679 66.7 1639 33.3L1599 0L2000 0L2000 33.3C2000 66.7 2000 133.3 2000 200C2000 266.7 2000 333.3 2000 400C2000 466.7 2000 533.3 2000 600C2000 666.7 2000 733.3 2000 800C2000 866.7 2000 933.3 2000 966.7L2000 1000Z" fill="#d8d8d8"></path><path d="M1139 1000L1075.7 966.7C1012.3 933.3 885.7 866.7 892.3 800C899 733.3 1039 666.7 1169 600C1299 533.3 1419 466.7 1429 400C1439 333.3 1339 266.7 1212.3 200C1085.7 133.3 932.3 66.7 855.7 33.3L779 0L1600 0L1640 33.3C1680 66.7 1760 133.3 1763.3 200C1766.7 266.7 1693.3 333.3 1693.3 400C1693.3 466.7 1766.7 533.3 1776.7 600C1786.7 666.7 1733.3 733.3 1740 800C1746.7 866.7 1813.3 933.3 1846.7 966.7L1880 1000Z" fill="#d1d1d1"></path><path d="M919 1000L889 966.7C859 933.3 799 866.7 785.7 800C772.3 733.3 805.7 666.7 919 600C1032.3 533.3 1225.7 466.7 1262.3 400C1299 333.3 1179 266.7 1055.7 200C932.3 133.3 805.7 66.7 742.3 33.3L679 0L780 0L856.7 33.3C933.3 66.7 1086.7 133.3 1213.3 200C1340 266.7 1440 333.3 1430 400C1420 466.7 1300 533.3 1170 600C1040 666.7 900 733.3 893.3 800C886.7 866.7 1013.3 933.3 1076.7 966.7L1140 1000Z" fill="#cacaca"></path><path d="M639 1000L635.7 966.7C632.3 933.3 625.7 866.7 635.7 800C645.7 733.3 672.3 666.7 712.3 600C752.3 533.3 805.7 466.7 845.7 400C885.7 333.3 912.3 266.7 825.7 200C739 133.3 539 66.7 439 33.3L339 0L680 0L743.3 33.3C806.7 66.7 933.3 133.3 1056.7 200C1180 266.7 1300 333.3 1263.3 400C1226.7 466.7 1033.3 533.3 920 600C806.7 666.7 773.3 733.3 786.7 800C800 866.7 860 933.3 890 966.7L920 1000Z" fill="#c0c0c0"></path><path d="M339 1000L312.3 966.7C285.7 933.3 232.3 866.7 242.3 800C252.3 733.3 325.7 666.7 429 600C532.3 533.3 665.7 466.7 709 400C752.3 333.3 705.7 266.7 595.7 200C485.7 133.3 312.3 66.7 225.7 33.3L139 0L340 0L440 33.3C540 66.7 740 133.3 826.7 200C913.3 266.7 886.7 333.3 846.7 400C806.7 466.7 753.3 533.3 713.3 600C673.3 666.7 646.7 733.3 636.7 800C626.7 866.7 633.3 933.3 636.7 966.7L640 1000Z" fill="#b2b2b2"></path><path d="M0 1000L0 966.7C0 933.3 0 866.7 0 800C0 733.3 0 666.7 0 600C0 533.3 0 466.7 0 400C0 333.3 0 266.7 0 200C0 133.3 0 66.7 0 33.3L0 0L140 0L226.7 33.3C313.3 66.7 486.7 133.3 596.7 200C706.7 266.7 753.3 333.3 710 400C666.7 466.7 533.3 533.3 430 600C326.7 666.7 253.3 733.3 243.3 800C233.3 866.7 286.7 933.3 313.3 966.7L340 1000Z" fill="#a4a4a4"></path></svg>